<svg xmlns="http://www.w3.org/2000/svg" width="48" height="48" viewBox="0 0 48 48">
  <rect width="48" height="48" fill="none"/>
  <path fill="#fff" d="M24 36.5 11.8 25.2C7.6 21.3 7.1 15 10.7 11.4c3.1-3.1 8.1-2.8 11.1.5L24 14.3l2.2-2.4c3-3.3 8-3.6 11.1-.5 3.6 3.6 3.1 9.9-1.1 13.8Z"/>
  <path fill="#fff" opacity=".55" d="M0 5.5-7.8-1.7C-10.4-4.2-10.7-8.1-8.4-10.4c2-2 5.1-1.8 7 .3L0-8.6l1.4-1.5c1.9-2.1 5-2.3 7-.3 2.3 2.3 2 6.2-.6 8.7Z"/>
  <path fill="#fff" opacity=".55" d="M48 5.5 40.2-1.7c-2.6-2.5-2.9-6.4-.6-8.7 2-2 5.1-1.8 7 .3L48-8.6l1.4-1.5c1.9-2.1 5-2.3 7-.3 2.3 2.3 2 6.2-.6 8.7Z"/>
  <path fill="#fff" opacity=".55" d="M0 53.5-7.8 46.3c-2.6-2.5-2.9-6.4-.6-8.7 2-2 5.1-1.8 7 .3L0 39.4l1.4-1.5c1.9-2.1 5-2.3 7-.3 2.3 2.3 2 6.2-.6 8.7Z"/>
  <path fill="#fff" opacity=".55" d="M48 53.5 40.2 46.3c-2.6-2.5-2.9-6.4-.6-8.7 2-2 5.1-1.8 7 .3l1.4 1.5 1.4-1.5c1.9-2.1 5-2.3 7-.3 2.3 2.3 2 6.2-.6 8.7Z"/>
</svg>
