<?xml version="1.0" encoding="UTF-8"?>
<!DOCTYPE svg PUBLIC "-//W3C//DTD SVG 1.1//EN" "http://www.w3.org/Graphics/SVG/1.1/DTD/svg11.dtd">
<svg xmlns="http://www.w3.org/2000/svg" version="1.1" width="512px" height="512px" style="shape-rendering:geometricPrecision; text-rendering:geometricPrecision; image-rendering:optimizeQuality; fill-rule:evenodd; clip-rule:evenodd" xmlns:xlink="http://www.w3.org/1999/xlink">
<g><path fill="#000000" stroke="#000000" stroke-width="0.5" d="M 244.01,0 c 7.99,0 15.99,0 23.98,0 c -0.04,0.39 0.13,0.67 0.52,0.84 c 10.11,1.56 19.69,4.75 28.73,9.58 c 50.28,28.91 100.53,57.91 150.72,86.98 c 10.7,6.64 19.58,15.16 26.65,25.58 c 0.57,1.04 0.36,1.88 -0.63,2.53 c -65.59,41.33 -131.17,82.67 -196.75,124.03 c -9.65,6.05 -21.95,6.29 -31.81,0.58 c -68.7,-43.14 -137.31,-86.4 -205.81,-129.77 c 5.6,-9.1 17.44,-19.13 26.82,-24.37 c 48.79,-28.15 97.58,-56.31 146.37,-84.48 c 7.48,-4.21 15.4,-7.3 23.76,-9.26 c 0.75,-0.26 1.43,-0.65 2.04,-1.17 c 0.99,-0.4 5.68,0.9 5.41,-1.07 Z M 221.96,114 c 0.64,47.84 72.12,44.06 67.93,-3.5 c -7.02,-43.77 -68.13,-36.41 -67.93,3.5 Z M 254.01,512 c -3.67,0 -7.33,0 -11,0 c 0.43,-1.64 -3.5,-1.26 -4.39,-1.37 c -8.98,-2.74 -17.65,-5.3 -25.83,-10.12 c -49.41,-28.54 -98.81,-57.08 -148.21,-85.61 c -27.06,-17.11 -41.69,-43.31 -41.88,-75.4 c -0.08,-58 -0.01,-116 0.21,-174 c 0.8,-11.39 3.71,-22.22 8.75,-32.48 c 0.66,-1.03 1.53,-1.22 2.61,-0.55 c 67.67,42.62 135.34,85.26 203.01,127.89 c 2.76,1.68 5.64,3.1 8.65,4.28 c 2.56,0.9 5.15,1.61 7.77,2.16 c 0.28,0.87 0.39,1.77 0.35,2.69 c 0,80.84 -0.01,161.68 -0.04,242.51 Z M 267.01,270 c -0.18,-1.08 0,-2.09 0.52,-3.02 c 2.78,-0.66 5.53,-1.45 8.25,-2.36 c 2.93,-1.07 5.7,-2.44 8.33,-4.1 c 65.35,-41.21 130.68,-82.43 196,-123.67 c 0.82,-0.63 1.52,-0.55 2.1,0.24 c 4.45,10.35 6.8,21.15 7.03,32.41 c 0.07,56.33 0.09,112.67 0.07,169 c 0.58,32.23 -15.92,61.34 -43.73,77.54 c -49.65,28.7 -99.33,57.34 -149.04,85.92 c -8.22,4.34 -19.77,8.68 -29.03,9.12 c -0.45,-0.4 -0.63,-0.91 -0.54,-1.52 c 0.04,-79.86 0.05,-159.71 0.04,-239.56 Z M 413.18,248 c 0.08,19.07 13.74,25.65 28.15,12.7 c 14.94,-12.83 27.95,-43.09 19.25,-61.72 c -4.16,-7.83 -12.99,-8.02 -19.87,-3.61 c -17.04,11.12 -26.73,32.72 -27.53,52.63 Z M 155.87,286 c 0.17,18.23 8.69,36.45 22.05,48.77 c 7.71,6.98 20.04,10.89 25.66,-0.74 c 8.51,-20.64 -7.26,-54.27 -25.97,-65.13 c -13.86,-7.75 -22.36,4.05 -21.74,17.1 Z M 298.91,322 c -0.62,13.02 7.88,24.76 21.7,17.1 c 18.52,-10.56 32.13,-40.96 27.3,-61.57 c -4.29,-16.88 -20.88,-11.49 -29.71,-1.75 c -11.29,11.75 -19.39,29.9 -19.29,46.22 Z M 51.14,336 c 0.67,19.78 12.23,45.66 31.3,53.97 c 9.42,3.82 16.56,-2.44 18.27,-11.52 c 3.55,-21.82 -11.24,-55.65 -33.63,-62.2 c -11.95,-1.75 -16.04,9.96 -15.94,19.75 Z M 413.18,372 c 0.1,19.09 13.7,25.5 28.15,12.7 c 14.92,-12.89 27.93,-43.05 19.27,-61.73 c -4.19,-7.86 -12.98,-8.04 -19.9,-3.63 c -17.08,11.14 -26.73,32.73 -27.52,52.66 Z M 298.91,446 c -0.61,13 7.92,24.72 21.69,17.07 c 18.76,-10.77 34.52,-44.51 26.06,-65.13 c -4.68,-10.44 -16.13,-8.55 -23.63,-2.42 c -14.55,12.11 -24.03,31.48 -24.12,50.48 Z"/></g>
</svg>
