<?xml version="1.0" encoding="UTF-8"?>
<!DOCTYPE svg PUBLIC "-//W3C//DTD SVG 1.1//EN" "http://www.w3.org/Graphics/SVG/1.1/DTD/svg11.dtd">
<svg xmlns="http://www.w3.org/2000/svg" version="1.1" width="512px" height="512px" style="shape-rendering:geometricPrecision; text-rendering:geometricPrecision; image-rendering:optimizeQuality; fill-rule:evenodd; clip-rule:evenodd" xmlns:xlink="http://www.w3.org/1999/xlink">
<g><path fill="#000000" stroke="#000000" stroke-width="0.5" d="M 282.04,0 c 22.98,0 45.95,0 68.93,0 c 0.04,0.36 0.22,0.63 0.54,0.82 c 16.46,6.6 11.56,30.08 -7.01,29.19 c -19.67,0 -39.34,-0.01 -59,-0.03 c -14.33,-1.46 -19.57,-18.14 -8.07,-27.08 c 1.53,-1.05 3.07,-2.02 4.61,-2.9 Z M 271.13,74 c 1.3,-7.38 5.6,-11.85 12.9,-13.41 c 20.48,-0.26 40.97,-0.35 61.47,-0.27 c 18.4,-0.34 22.48,24.88 4,29.7 c -20.66,0.32 -41.33,0.42 -62,0.31 c -10.07,0.1 -16.37,-6.32 -16.37,-16.33 Z M 271.13,137 c -0.32,-8.92 6.31,-16.32 15.37,-16.17 c 21,-0.1 42,-0.02 63,0.24 c 17.47,4.58 15.54,28.22 -3,29.75 c -20.84,0.08 -41.69,0 -62.53,-0.22 c -7.3,-1.67 -11.58,-6.2 -12.84,-13.6 Z M 391.97,136 c 0.26,-9.42 7.13,-15.61 16.53,-15.18 c 20.67,-0.11 41.33,0 61.99,0.3 c 17.8,4.67 14.4,29.71 -3.99,29.71 c -20.6,0.08 -41.2,-0.01 -61.8,-0.26 c -7.76,-1.78 -12.01,-6.64 -12.73,-14.57 Z M 150.36,176 c 0.67,-9.1 6.96,-15.1 16.14,-15 c 20.66,-0.08 41.31,0 61.96,0.23 c 17.98,4.39 15.75,28.83 -2.96,29.77 c -20.99,0.1 -41.97,0 -62.95,-0.28 c -7.47,-2.07 -11.54,-6.98 -12.19,-14.72 Z M 350.97,512 c -22.98,0 -45.96,0 -68.94,0 c -0.04,-0.36 -0.24,-0.61 -0.59,-0.76 c -5.67,-1.68 -10.05,-7.87 -10.3,-13.74 c -0.12,-101.27 -0.04,-202.54 0.25,-303.81 c 1.67,-7.01 6.04,-11.18 13.13,-12.5 c 21.32,-0.17 42.63,-0.15 63.95,0.03 c 8.63,1.98 13.02,7.41 13.16,16.28 c 0,99.65 0,199.31 -0.02,298.96 c -0.24,7.01 -3.58,11.92 -10.02,14.71 c -0.33,0.19 -0.54,0.47 -0.62,0.83 Z M 391.97,196 c 0.12,-7.47 5.43,-13.33 12.69,-14.72 c 20.61,-0.21 41.22,-0.27 61.84,-0.21 c 18.01,-0.21 22.13,24.7 3.96,29.71 c -20.98,0.3 -41.97,0.4 -62.96,0.3 c -8.61,0.25 -15.46,-6.49 -15.53,-15.08 Z M 29.78,216 c -0.01,-7.41 5.68,-13.51 12.91,-14.61 c 20.6,-0.21 41.21,-0.28 61.81,-0.21 c 21.12,0.66 20.32,30.83 -1,30.01 c -19,-0.01 -38,-0.01 -57,0 c -9.52,0.47 -16.54,-5.56 -16.72,-15.19 Z M 150.37,235.99 c 0.86,-7.91 5.17,-12.72 12.93,-14.4 c 20.4,-0.26 40.8,-0.35 61.2,-0.27 c 21.56,-0.14 21.62,30.39 0,30.01 c -19,0 -38,0.01 -57,0.01 c -9.78,0.48 -16.66,-5.53 -17.13,-15.35 Z M 391.98,257 c 0.13,-9.58 6.99,-15.75 16.52,-15.45 c 19.33,0.01 38.67,0.01 58,0.01 c 21.85,0.28 20.16,31.17 -1,30.01 c -18.99,0 -37.97,0 -56.95,0 c -8.59,0.43 -16.31,-5.8 -16.57,-14.57 Z M 29.78,277 c -0.07,-8.97 6.77,-15.56 15.72,-15.26 c 19.67,0.01 39.33,0.01 59,0.01 c 21.33,0.36 20.1,30.57 -1,30.01 c -19,-0.01 -38,-0.01 -57,0 c -8.79,0.36 -16.56,-5.68 -16.72,-14.76 Z M 150.37,297 c 0.6,-9.75 7.37,-15.7 17.13,-15.19 c 20.34,-0.07 40.67,0.01 61,0.23 c 17.87,4.4 15.89,28.4 -3,29.79 c -20.84,0.08 -41.68,-0.01 -62.52,-0.27 c -7.64,-1.87 -11.85,-6.72 -12.61,-14.56 Z M 471.73,511.77 c -23.15,0.02 -46.31,0.04 -69.47,0.06 c -5.41,-3.47 -9.31,-6.4 -10.24,-13.33 c -0.06,-60.66 -0.07,-121.33 -0.04,-182 c 0.8,-9.82 7.85,-15.15 17.52,-14.58 c 20,-0.04 40,0 60,0.13 c 8.62,2.1 12.87,7.58 12.75,16.45 c 0.01,59.67 0,119.33 -0.04,179 c -0.32,7.73 -4.47,10.68 -10.48,14.27 Z M 29.78,337 c -0.02,-7.71 5.33,-13.39 12.73,-14.85 c 20.66,-0.15 41.32,-0.2 61.99,-0.15 c 17.69,-0.45 22.11,25.35 2.97,29.82 c -20.65,0.18 -41.31,0.24 -61.97,0.19 c -8.61,0.27 -15.73,-6.29 -15.72,-15.01 Z M 229.97,512 c -22.98,0 -45.96,0 -68.95,0 c -0.01,-0.35 -0.18,-0.62 -0.51,-0.8 c -6.18,-2.59 -9.55,-7.22 -10.09,-13.89 c -0.05,-46.59 -0.06,-93.18 -0.03,-139.77 c 0.54,-8.4 4.92,-13.5 13.14,-15.31 c 21.32,-0.2 42.63,-0.21 63.95,-0.03 c 8.31,1.73 12.78,6.83 13.41,15.3 c 0.01,46.67 0,93.33 -0.03,140 c -0.56,5.83 -3.38,10.21 -8.46,13.13 c -0.74,0.37 -2.33,0.29 -2.43,1.37 Z M 108.95,512 c -22.97,0 -45.95,0 -68.93,0 c -0.02,-0.38 -0.2,-0.67 -0.54,-0.88 c -5.59,-2.4 -8.81,-6.6 -9.63,-12.61 c -0.12,-34.01 -0.13,-68.01 -0.04,-102.01 c 0.76,-9.12 7.74,-14.42 16.69,-14.18 c 19.93,-0.04 39.86,0.01 59.79,0.14 c 7.94,0.94 13.66,6.99 13.74,15.04 c 0.03,33.67 0.01,67.34 -0.06,101 c -0.95,6.3 -4.4,10.55 -10.35,12.75 c -0.33,0.17 -0.55,0.42 -0.67,0.75 Z"/></g>
</svg>
