<?xml version="1.0" encoding="UTF-8"?>
<!DOCTYPE svg PUBLIC "-//W3C//DTD SVG 1.1//EN" "http://www.w3.org/Graphics/SVG/1.1/DTD/svg11.dtd">
<svg xmlns="http://www.w3.org/2000/svg" version="1.1" width="512px" height="512px" style="shape-rendering:geometricPrecision; text-rendering:geometricPrecision; image-rendering:optimizeQuality; fill-rule:evenodd; clip-rule:evenodd" xmlns:xlink="http://www.w3.org/1999/xlink">
<g><path fill="#000000" stroke="#000000" stroke-width="0.5" d="M 512,253.02 c 0,1.99 0,3.98 0,5.96 c -1.12,0.23 -0.61,3.27 -1.27,4.15 c -1.57,4.2 -4.15,7.66 -7.74,10.37 c -77.18,63.13 -154.35,126.27 -231.51,189.42 c -15.42,14.03 -38.07,3.36 -36.74,-17.42 c 0,-47.33 0.01,-94.65 0.03,-141.98 c 0.09,-0.88 -0.29,-1.35 -1.13,-1.42 c -66.87,54.54 -133.72,109.1 -200.57,163.68 c -12.87,8.06 -29,1.61 -32.43,-13.17 c -0.13,-0.3 -0.34,-0.51 -0.64,-0.63 c 0,-130.65 0,-261.31 0,-391.96 c 0.3,-0.12 0.51,-0.33 0.62,-0.64 c 3.49,-14.54 19.04,-21.08 31.95,-13.47 c 67.05,54.64 134.07,109.3 201.07,164 c 0.85,-0.07 1.23,-0.55 1.14,-1.43 c -0.03,-47.33 -0.04,-94.65 -0.03,-141.98 c -1.33,-20.79 21.21,-31.4 36.73,-17.42 c 77.16,63.15 154.33,126.29 231.51,189.42 c 3.59,2.7 6.17,6.16 7.74,10.36 c 0.65,0.95 0.08,3.85 1.27,4.16 Z"/></g>
</svg>
