<?xml version="1.0" encoding="UTF-8"?>
<!DOCTYPE svg PUBLIC "-//W3C//DTD SVG 1.1//EN" "http://www.w3.org/Graphics/SVG/1.1/DTD/svg11.dtd">
<svg xmlns="http://www.w3.org/2000/svg" version="1.1" width="512px" height="512px" style="shape-rendering:geometricPrecision; text-rendering:geometricPrecision; image-rendering:optimizeQuality; fill-rule:evenodd; clip-rule:evenodd" xmlns:xlink="http://www.w3.org/1999/xlink">
<g><path fill="#000000" stroke="#000000" stroke-width="0.5" d="M 32.87,106 c -1.09,-36.04 40.5,-54.65 66.99,-30.37 c 41.14,34.38 82.34,68.69 123.58,102.92 c 0.95,-0.26 0.32,-1.39 0.56,-2.03 c -0.02,-25.01 0,-50.01 0.04,-75.02 c 2.6,-32.65 39.46,-48.69 64.9,-27.95 c 57.31,47.67 114.62,95.34 171.94,143 c 3.69,1.9 6.77,4.52 9.26,7.86 c 18.03,22.45 14.42,53.37 -7.77,71.47 c -57.15,47.51 -114.29,95.03 -171.42,142.57 c -25.05,21.31 -64.23,4.35 -65.19,-27.95 c -0.1,-25.33 -0.12,-50.66 -0.07,-75.99 c 0.08,-0.45 -0.03,-0.85 -0.32,-1.18 c -41.27,33.87 -82.43,67.89 -123.5,102.05 c -4.58,4.34 -9.79,7.7 -15.63,10.07 c -24.47,9.63 -52.68,-8.73 -53.32,-34.95 c -0.04,-101.5 -0.06,-203 -0.05,-304.5 Z"/></g>
</svg>
