<?xml version="1.0" encoding="UTF-8"?>
<!DOCTYPE svg PUBLIC "-//W3C//DTD SVG 1.1//EN" "http://www.w3.org/Graphics/SVG/1.1/DTD/svg11.dtd">
<svg xmlns="http://www.w3.org/2000/svg" version="1.1" width="512px" height="512px" style="shape-rendering:geometricPrecision; text-rendering:geometricPrecision; image-rendering:optimizeQuality; fill-rule:evenodd; clip-rule:evenodd" xmlns:xlink="http://www.w3.org/1999/xlink">
<g><path fill="#000000" stroke="#000000" stroke-width="0.5" d="M 87.56,340 c 0.14,-60.98 44.37,-120.86 71.4,-173.59 c 22.18,-42 37.57,-80.68 38.22,-128.87 c 1.76,-4.11 4.85,-5.87 9.27,-5.29 c 92.83,32.97 136.13,137.76 133.4,230.25 c -0.47,5.71 -0.8,11.42 -1,17.14 c 0.72,0.93 1.15,0.19 1.7,-0.5 c 12.87,-23.5 30.24,-65.43 23.15,-91.93 c -0.51,-8.14 8.27,-12.1 13.9,-6.32 c 40.93,45.03 55.47,103.24 42.24,162.58 c -9.78,50.64 -45.52,108.25 -93.35,130.46 c -5.65,1.31 -10.48,-2.7 -10.2,-8.41 c 8.17,-22.13 14.65,-42.83 17.57,-66.4 c 0.2,-2.24 0.3,-4.48 0.31,-6.73 c -0.31,-0.5 -0.72,-0.61 -1.24,-0.33 c -8.37,5.79 -43.77,27.46 -52.2,20.55 c -25.99,-28.12 -43.06,-83.67 -48.6,-121.11 c -0.8,-5.76 -1.33,-11.54 -1.58,-17.34 c -0.89,-0.39 -1.66,-0.19 -2.32,0.6 c -10.46,10.74 -19.05,22.81 -25.79,36.22 c -21.99,45.21 -36.77,112.19 -15.38,159.51 c 0.79,7.69 -6.67,12.11 -12.88,7.6 c -43.8,-33.76 -86.9,-79.11 -86.62,-138.09 Z"/></g>
</svg>
