<?xml version="1.0" encoding="UTF-8"?>
<!DOCTYPE svg PUBLIC "-//W3C//DTD SVG 1.1//EN" "http://www.w3.org/Graphics/SVG/1.1/DTD/svg11.dtd">
<svg xmlns="http://www.w3.org/2000/svg" version="1.1" width="512px" height="512px" style="shape-rendering:geometricPrecision; text-rendering:geometricPrecision; image-rendering:optimizeQuality; fill-rule:evenodd; clip-rule:evenodd" xmlns:xlink="http://www.w3.org/1999/xlink">
<g><path fill="#000000" fill-opacity="0.996" stroke="#000000" stroke-width="0.5" stroke-opacity="0.996" d="M 250.94,0.36 c 3.36,0.02 6.72,0.04 10.07,0.06 c 5.59,0.36 11.2,0.55 16.83,0.57 c 19.03,1.46 38.19,5.49 56.02,10.8 c 21.79,7.21 43.3,17.5 62.88,29.92 c 5.96,4.71 14.14,9.64 19.45,14.85 c 9.87,7.27 20.58,17.69 28.74,26.94 c 3.13,2.86 17.32,19.45 19.23,23.83 c 5.3,4.6 21.94,33.13 23.62,40.17 c 12.53,24.6 21.32,58.92 23.16,86.67 c 0.14,5.12 0.26,10.25 0.38,15.37 c -0.08,0.65 0.15,1.15 0.68,1.51 c 0,3.3 0,6.6 0,9.91 c -0.57,0.32 -0.8,0.82 -0.69,1.49 c -0.14,5.12 -0.23,10.25 -0.26,15.37 c -1.47,18.17 -5.13,35.84 -9.86,52.98 c -11.78,36.16 -29.84,69.56 -55.75,97.17 c -4.15,5.05 -15.99,16.96 -21.26,20.71 c -4.13,4.6 -12.72,10.31 -17.45,14.63 c -2.68,0.92 -7.24,5.25 -9.97,6.97 c -35.09,22.59 -77.09,37.7 -118.99,40.75 c -5.56,-0.17 -11.29,0.16 -16.77,0.61 c -3.34,-0.02 -6.69,-0.05 -10.04,-0.07 c -5.59,-0.27 -11.19,-0.48 -16.8,-0.62 c -26.78,-1.64 -62.91,-10.9 -86.66,-23.18 c -7.77,-2.68 -34.04,-17.67 -40.17,-23.6 c -4.04,-1.76 -21.46,-16.41 -23.82,-19.24 c -7.36,-5.88 -24.67,-24.49 -29.69,-32.24 c -7.87,-8.72 -13.72,-19.08 -20.1,-28.96 c -14.65,-26.44 -24.56,-53.5 -30.05,-82.9 c -1.09,-7.65 -1.99,-15.33 -2.71,-23.03 c 0.02,-5.13 -0.06,-10.25 -0.26,-15.37 c 0.11,-0.67 -0.13,-1.16 -0.7,-1.47 c 0,-3.31 0,-6.61 0,-9.92 c 0.54,-0.33 0.77,-0.81 0.67,-1.46 c 0.11,-5.12 0.23,-10.24 0.35,-15.36 c 0.65,-7.71 1.54,-15.39 2.67,-23.05 c 0.85,-1.91 1.18,-3.91 1,-5.98 c 1.18,-2.36 1.97,-6.38 2.04,-9.02 c 0.31,-0.5 0.57,-1.03 0.79,-1.58 c 0.42,-2.13 0.83,-4.26 1.25,-6.4 c 0.45,-1.57 1.04,-3.11 1.77,-4.6 c 0.1,-0.8 0.19,-1.61 0.27,-2.41 c 1.13,-3.52 2.38,-7.01 3.76,-10.47 c -0.02,-0.52 0.04,-1.04 0.19,-1.54 c 1.12,-1.48 1.76,-3.15 1.94,-5 c 0.68,-0.8 1.18,-1.69 1.49,-2.69 c 0.48,-1.77 1.04,-3.51 1.66,-5.22 c 1.37,-2.96 2.83,-5.88 4.38,-8.76 c 0.17,-0.79 0.37,-1.56 0.62,-2.32 c 2.99,-5.63 5.97,-11.26 8.93,-16.92 c 1.21,-2.07 2.56,-4.06 4.03,-5.94 c 0.51,-1.4 1.16,-2.74 1.94,-4 c 1.32,-2.04 2.64,-4.07 3.96,-6.1 c 1.14,-0.95 1.97,-2.11 2.5,-3.49 c 1.82,-1.26 1.68,-1.58 2.48,-3.51 c 1.24,-1.45 2.4,-2.97 3.48,-4.56 c 1.14,-0.6 1.88,-1.51 2.23,-2.74 c 0.74,-0.68 1.46,-1.38 2.16,-2.11 c 1.1,-2.08 2.45,-3.95 4.06,-5.62 c 0.89,-0.81 1.79,-1.6 2.7,-2.37 c 1.3,-1.96 1.33,-3.21 3.74,-4.31 c 0.59,-0.76 1.14,-1.55 1.65,-2.37 c 3.03,-2.6 5.92,-5.35 8.68,-8.25 c 1.62,-2.38 3.66,-4.32 6.12,-5.82 c 0.36,-0.66 0.77,-1.28 1.22,-1.86 c 2.11,-1.42 3.52,-1.69 4.89,-4.07 c 1.89,-1.75 3.95,-3.27 6.19,-4.58 c 1.52,-1.22 1.25,-2.14 3.5,-2.75 c 0.71,-0.94 1.51,-1.79 2.4,-2.57 c 1.37,-0.57 2.55,-1.42 3.54,-2.53 c 1.93,-0.78 2.23,-0.73 3.45,-2.53 c 2.18,-1.47 4.36,-2.94 6.55,-4.42 c 2.23,-1.53 4.59,-2.85 7.07,-3.95 c 0.35,-0.31 0.66,-0.66 0.93,-1.06 c 3.33,-1.6 6.13,-3.9 9.63,-5.12 c 1.6,-0.78 3.09,-1.73 4.46,-2.85 c 6.35,-2.82 12.64,-5.82 18.86,-8.98 c 1.76,-0.53 3.52,-1.07 5.28,-1.61 c 2.58,-1.15 5.16,-2.3 7.73,-3.45 c 0.5,-0.15 1,-0.21 1.52,-0.18 c 1.46,-0.66 2.95,-1.26 4.46,-1.8 c 2,-0.63 4,-1.28 5.99,-1.95 c 0.8,-0.08 1.61,-0.17 2.41,-0.27 c 1.5,-0.67 3.02,-1.25 4.57,-1.73 c 1.67,-0.25 2.54,0 4,-1.1 c 1.46,0.15 2.8,-0.18 4,-1.01 c 3.1,-0.11 6.16,-0.73 9.01,-2 c 2.08,0.17 4.08,-0.16 6.01,-1.01 c 7.67,-1.12 15.37,-2.03 23.1,-2.71 c 5.58,-0.07 11.13,-0.28 16.66,-0.62 Z M 245.87,64.29 c -6.87,0.42 -13.66,1.12 -20.37,2.08 c -2.55,0.6 -5.09,1.23 -7.62,1.89 c -2.27,0.06 -4.51,0.38 -6.72,0.95 c -5.27,1.43 -10.5,2.94 -15.67,4.52 c -2,0.62 -3.91,1.44 -5.71,2.49 c -1.75,0.54 -3.51,1.05 -5.28,1.52 c -2.16,1.27 -4.4,2.4 -6.71,3.4 c -1.98,0.48 -3.88,1.22 -5.68,2.21 c -4.71,2.28 -9.27,4.8 -13.68,7.57 c -3.63,2.36 -7.19,4.79 -10.7,7.3 c -0.69,0.28 -1.38,0.56 -2.08,0.81 c -0.32,0.62 -0.26,1.23 0.18,1.81 c 88.21,88.37 176.48,176.68 264.81,264.93 c 0.68,0.92 1.51,1.12 2.49,0.6 c 0.11,-0.73 0.31,-1.43 0.6,-2.1 c 9.93,-13.17 17.37,-28.8 23.19,-44.08 c 5.33,-15.35 8.42,-30.24 10.28,-46.19 c 0.83,-0.76 0.61,-8 0.82,-9.49 c -0.47,-6.67 -0.49,-13.34 -0.05,-20.01 c -0.23,-2.2 -0.45,-4.39 -0.67,-6.59 c -0.55,-0.92 -2.59,-14.87 -2.5,-16.43 c -2.49,-12.77 -6.87,-26.94 -11.62,-38.97 c -2.74,-6.24 -15.73,-31.84 -19.34,-34.85 c -2.25,-4.96 -23.5,-30.24 -28.56,-32.42 c -1.13,-1.87 -5.83,-5.31 -6.93,-7.12 c -3.12,-1.47 -13.32,-9.37 -16.06,-11.88 c -31.87,-19.85 -63.29,-30.67 -101.23,-32.19 c -5.07,-0.17 -10.13,-0.09 -15.19,0.24 Z M 98.89,145.69 c -1.18,3.07 -9.87,15.65 -12.07,19.7 c -7.46,14.29 -13.62,30.34 -17.61,45.77 c -1.7,8.99 -3.27,17.78 -4.56,26.76 c -0.59,6.17 -0.85,12.36 -0.78,18.58 c 0.02,3 0.04,6 0.08,9 c 0.37,2.88 0.61,5.77 0.7,8.66 c 1.22,1.2 0.46,1.86 0.58,3.36 c 5,37.31 18.19,69.6 41.97,98.77 c 0.8,2.59 9.51,10.23 10.95,13.06 c 7.96,7.19 16.58,16.15 25.51,21.52 c 2.42,4.01 35.9,22.21 41.13,22.87 c 8.29,4.05 18.02,6.31 26.53,8.81 c 5.04,1.89 23.95,3.76 26.64,4.88 c 2.18,0.09 4.37,0.26 6.54,0.54 c 4.32,-0.27 8.66,-0.4 13,-0.38 c 2.34,-0.02 4.68,0.13 7.01,0.43 c 3.23,-0.03 6.45,-0.28 9.63,-0.75 c 8.96,-1.11 17.86,-2.9 26.7,-4.48 c 15.68,-4.1 31.24,-10.07 45.77,-17.61 c 5.44,-3.03 15.08,-9.95 19.79,-12.18 c 0.43,-0.65 0.36,-1.26 -0.2,-1.85 c -88.3,-88.3 -176.58,-176.63 -264.83,-264.97 c -0.75,-0.7 -1.57,-0.86 -2.48,-0.49 Z"/></g>
<g><path fill="#000000" fill-opacity="0.388" d="M 145.65,99.03 c 89,89.26 178.16,178.37 267.48,267.34 c -0.98,0.52 -1.81,0.32 -2.49,-0.6 c -88.33,-88.25 -176.6,-176.56 -264.81,-264.93 c -0.44,-0.58 -0.5,-1.19 -0.18,-1.81 Z M 366.4,413 c -89.01,-89.28 -178.18,-178.38 -267.51,-267.31 c 0.91,-0.37 1.73,-0.21 2.48,0.49 c 88.25,88.34 176.53,176.67 264.83,264.97 c 0.56,0.59 0.63,1.2 0.2,1.85 Z"/></g>
<g><path fill="#000000" fill-opacity="0.533" stroke="#000000" stroke-width="0.5" stroke-opacity="0.533" d="M 233.96,0.1 c 5.66,0.09 11.32,0.17 16.98,0.26 c -5.53,0.34 -11.08,0.55 -16.66,0.62 c -0.11,-0.29 -0.21,-0.59 -0.32,-0.88 Z M 261.01,0.42 c 5.67,-0.13 11.34,-0.25 17.01,-0.37 c -0.06,0.31 -0.12,0.63 -0.18,0.94 c -5.63,-0.02 -11.24,-0.21 -16.83,-0.57 Z M 0,234 c 0.34,0.07 0.68,0.15 1.02,0.22 c -0.12,5.12 -0.24,10.24 -0.35,15.36 c 0.1,0.65 -0.13,1.13 -0.67,1.46 c 0,-5.68 0,-11.36 0,-17.04 Z M 510.94,234.17 c 0.36,-0.06 0.71,-0.11 1.06,-0.17 c 0,5.68 0,11.36 0,17.05 c -0.53,-0.36 -0.76,-0.86 -0.68,-1.51 c -0.12,-5.12 -0.24,-10.25 -0.38,-15.37 Z M 0,260.96 c 0.57,0.31 0.81,0.8 0.7,1.47 c 0.2,5.12 0.28,10.24 0.26,15.37 c -0.32,0.07 -0.64,0.14 -0.96,0.21 c 0,-5.69 0,-11.37 0,-17.05 Z M 512,260.96 c 0,5.68 0,11.36 0,17.04 c -0.32,-0.06 -0.63,-0.12 -0.95,-0.18 c 0.03,-5.12 0.12,-10.25 0.26,-15.37 c -0.11,-0.67 0.12,-1.17 0.69,-1.49 Z M 234.16,510.95 c 5.61,0.14 11.21,0.35 16.8,0.62 c -5.64,0.16 -11.29,0.33 -16.93,0.49 c 0.04,-0.37 0.09,-0.74 0.13,-1.11 Z M 277.77,511.03 c 0.05,0.31 0.1,0.62 0.14,0.94 c -5.63,-0.11 -11.27,-0.22 -16.91,-0.33 c 5.48,-0.45 11.21,-0.78 16.77,-0.61 Z"/></g>
<g><path fill="#000000" fill-opacity="0.337" stroke="#000000" stroke-width="0.5" stroke-opacity="0.337" d="M 64.65,237.92 c 0.32,2.51 0.46,5.04 0.4,7.58 c 0.01,8.68 -0.01,17.36 -0.06,26.04 c -0.04,0.88 -0.15,1.76 -0.34,2.62 c -0.09,-2.89 -0.33,-5.78 -0.7,-8.66 c -0.04,-3 -0.06,-6 -0.08,-9 c -0.07,-6.22 0.19,-12.41 0.78,-18.58 Z M 447.3,237.91 c 0.22,2.2 0.44,4.39 0.67,6.59 c -0.44,6.67 -0.42,13.34 0.05,20.01 c -0.21,1.49 0.01,8.73 -0.82,9.49 c -0.17,-1.16 -0.29,-2.33 -0.34,-3.51 c 0.16,-9.33 0.17,-18.66 0.02,-27.99 c -0.01,-1.54 0.13,-3.07 0.42,-4.59 Z M 237.96,447.43 c 1.48,-0.44 2.99,-0.62 4.55,-0.54 c 9.33,0.17 18.66,0.16 28,-0.03 c 1.22,0.06 2.43,0.2 3.63,0.41 c -3.18,0.47 -6.4,0.72 -9.63,0.75 c -2.33,-0.3 -4.67,-0.45 -7.01,-0.43 c -4.34,-0.02 -8.68,0.11 -13,0.38 c -2.17,-0.28 -4.36,-0.45 -6.54,-0.54 Z"/></g>
<g><path fill="#000000" fill-opacity="0.141" stroke="#000000" stroke-width="0.5" stroke-opacity="0.141" d="M 261.06,64.05 c -0.2,0.73 -0.69,1.07 -1.47,1.01 c -3.7,-0.22 -7.4,-0.17 -11.1,0.14 c -0.94,-0.1 -1.82,-0.4 -2.62,-0.91 c 5.06,-0.33 10.12,-0.41 15.19,-0.24 Z"/></g>
</svg>
