<?xml version="1.0" encoding="UTF-8"?>
<!DOCTYPE svg PUBLIC "-//W3C//DTD SVG 1.1//EN" "http://www.w3.org/Graphics/SVG/1.1/DTD/svg11.dtd">
<svg xmlns="http://www.w3.org/2000/svg" version="1.1" width="512px" height="512px" style="shape-rendering:geometricPrecision; text-rendering:geometricPrecision; image-rendering:optimizeQuality; fill-rule:evenodd; clip-rule:evenodd" xmlns:xlink="http://www.w3.org/1999/xlink">
<g><path fill="#000000" stroke="#000000" stroke-width="0.5" d="M 250.02,0 c 5.65,0 11.3,0 16.95,0 c 0.14,0.31 0.37,0.51 0.71,0.59 c 64.35,6.2 112.82,57.42 116.24,121.91 c 0.04,22.96 0.11,45.92 0.21,68.87 c 0.33,0.47 0.77,0.68 1.35,0.64 c 6.01,-0.04 12.02,-0.01 18.02,0.09 c 25.5,2.22 44.46,22.78 44.49,48.4 c 0.11,76.32 0.01,152.64 -0.29,228.96 c -2.83,21.59 -18.58,38.28 -40.12,41.9 c -0.31,0.12 -0.51,0.33 -0.6,0.64 c -100.65,0 -201.31,0 -301.96,0 c -0.09,-0.32 -0.3,-0.51 -0.63,-0.6 c -21.52,-3.86 -37.27,-20.23 -40.1,-41.94 c -0.29,-76.32 -0.39,-152.64 -0.28,-228.96 c 0.16,-15.13 5.98,-27.62 17.47,-37.48 c 14,-11.55 27.76,-11.46 45.04,-11.01 c 0.58,0.04 1.02,-0.17 1.35,-0.64 c 0.1,-22.95 0.17,-45.91 0.21,-68.87 c 2.21,-64.04 56,-120.03 120.44,-121.85 c 0.62,0.05 1.13,-0.17 1.5,-0.65 Z M 170.74,189 c -0.05,1.33 -0.2,3.21 1.74,3.02 c 55.98,0.01 111.96,-0.03 167.94,-0.12 c 0.72,-0.61 1,-1.4 0.85,-2.38 c -0.02,-20 -0.03,-40.01 -0.02,-60.02 c 0.5,-44.17 -31.1,-80.28 -74.75,-86.23 c -49.39,-5.91 -93.92,31.48 -95.66,81.23 c -0.09,21.5 -0.12,43 -0.1,64.5 Z M 213.28,320 c 0.6,15.76 7.54,27.91 20.81,36.46 c 0.31,0.33 0.5,0.72 0.56,1.17 c 0.09,15.96 0.13,31.91 0.12,47.87 c 0.79,25.69 36.55,28.86 42.15,4 c 0.23,-17.52 0.44,-35.04 0.63,-52.55 c 2.87,-2.05 5.62,-4.27 8.24,-6.66 c 8.24,-8.22 12.55,-18.16 12.92,-29.79 c -2.02,-56.46 -82.11,-57.89 -85.43,-0.5 Z"/></g>
</svg>
