<?xml version="1.0" encoding="UTF-8"?>
<!DOCTYPE svg PUBLIC "-//W3C//DTD SVG 1.1//EN" "http://www.w3.org/Graphics/SVG/1.1/DTD/svg11.dtd">
<svg xmlns="http://www.w3.org/2000/svg" version="1.1" width="512px" height="512px" style="shape-rendering:geometricPrecision; text-rendering:geometricPrecision; image-rendering:optimizeQuality; fill-rule:evenodd; clip-rule:evenodd" xmlns:xlink="http://www.w3.org/1999/xlink">
<g><path fill="#000000" stroke="#000000" stroke-width="0.5" d="M 512,123.02 c 0,3.66 0,7.31 0,10.96 c -0.39,0.02 -0.66,0.21 -0.81,0.6 c -1.73,5.56 -4.99,10 -9.77,13.35 c -25.98,20.03 -51.96,40.08 -77.93,60.12 c -16.79,13.27 -40.34,-0.26 -37.41,-21.55 c 0.71,-5.02 1.43,-10.04 2.14,-15.06 c -0.01,-1.09 -0.56,-1.65 -1.65,-1.7 c -52.44,-1.4 -97.17,26.46 -120.28,73.18 c -19.13,42.48 -32.21,83.84 -66.36,117.51 c -37.75,37.85 -83.23,59.32 -136.43,64.4 c -17.98,0.74 -35.96,0.98 -53.95,0.72 c -4.66,0.15 -7.01,-2.24 -9.55,-5.57 c 0,-23.99 0,-47.97 0,-71.95 c 0.77,-0.75 1.42,-1.6 1.97,-2.57 c 1.77,-1.91 3.96,-2.96 6.57,-3.14 c 16.65,0.02 33.31,-0.1 49.96,-0.35 c 45.95,-3.87 85.44,-31.02 105.43,-72.58 c 8.7,-19.93 17.43,-39.85 26.18,-59.76 c 36.6,-76.66 111.61,-122.69 196.31,-123.02 c 0.51,0.04 0.96,-0.09 1.36,-0.39 c 1.07,-2.6 -1.89,-14.13 -1.81,-17.72 c -1.69,-19.88 20.58,-32.39 36.55,-20.52 c 27.17,20.88 54.3,41.82 81.37,62.84 c 3.6,3.11 6.03,6.96 7.28,11.55 c 0.16,0.37 0.44,0.59 0.83,0.65 Z M 0,162.97 c 0,-23.65 0,-47.3 0,-70.95 c 0.8,-0.7 1.48,-1.53 2.03,-2.5 c 1.7,-1.98 3.86,-2.95 6.47,-2.91 c 16.34,-0.17 32.67,-0.07 49,0.31 c 53.56,2.86 104.27,25.78 141.77,64.14 c 2.23,3.23 2.38,6.56 0.47,9.98 c -14.64,18.87 -24.47,39.29 -33.96,61.04 c -3.11,4.31 -8.81,5.03 -12.81,1.45 c -23.93,-31.34 -53,-48.69 -92.47,-53.32 c -17.48,-1 -35.29,-0.07 -52.81,-0.61 c -2.56,-0.36 -4.61,-1.57 -6.18,-3.62 c -0.62,-0.71 -0.51,-2.77 -1.51,-3.01 Z M 512,378.02 c 0,3.65 0,7.3 0,10.96 c -0.37,0.06 -0.64,0.28 -0.8,0.64 c -1.27,4.65 -3.74,8.55 -7.41,11.68 c -26.45,20.52 -52.93,40.99 -79.45,61.42 c -16.9,14.28 -41.48,0.67 -38.23,-21.22 c 0.67,-4.68 1.35,-9.37 2.04,-14.05 c 0.09,-0.66 -0.11,-1.2 -0.61,-1.63 c -7,-0.34 -14.02,-0.67 -21.04,-0.99 c -51.67,-5.16 -97.31,-25.87 -134.2,-62.55 c -3.46,-3.32 -4.03,-7.06 -1.7,-11.23 c 14.17,-18.82 24.83,-39.3 33.79,-61.02 c 3.23,-4.68 9.39,-5.32 13.39,-1.17 c 25.67,35.07 66.12,55.34 109.74,53.22 c 0.54,-0.36 0.77,-0.86 0.7,-1.52 c -0.92,-10.73 -5.49,-22.48 1.76,-32.07 c 8.14,-10.85 22.75,-13.15 33.5,-4.53 c 26.33,20.34 52.67,40.67 79.01,61 c 4.25,3.21 7.14,7.36 8.69,12.44 c 0.15,0.4 0.42,0.6 0.82,0.62 Z"/></g>
</svg>
