<?xml version="1.0" encoding="UTF-8"?>
<!DOCTYPE svg PUBLIC "-//W3C//DTD SVG 1.1//EN" "http://www.w3.org/Graphics/SVG/1.1/DTD/svg11.dtd">
<svg xmlns="http://www.w3.org/2000/svg" version="1.1" width="512px" height="512px" style="shape-rendering:geometricPrecision; text-rendering:geometricPrecision; image-rendering:optimizeQuality; fill-rule:evenodd; clip-rule:evenodd" xmlns:xlink="http://www.w3.org/1999/xlink">
<g><path fill="#000000" stroke="#000000" stroke-width="0.5" d="M 64.43,339.11 c 0.53,-21.63 22.24,-32.79 24.56,-54.68 c 3.18,-24.59 -12.76,-36.62 -16.87,-57.93 c -8.97,-80.19 39.85,-161.18 119.47,-182.13 c 27.68,-7.77 54.54,-6.27 82.91,-6.33 c 86.23,0.97 149.72,58.48 164.38,142.47 c 2.26,17.23 4.28,41.41 -2.44,57.73 c -11.77,22.52 -21.34,42.25 -5.55,66.34 c 9.31,13.25 19.65,25.46 15.81,42.87 c -3,15.87 -17.26,34.68 -34.24,36.21 c -18.89,0.71 -34.23,-3.03 -44.8,16.63 c -6.72,11.91 -8.77,24.08 -11.8,37.16 c -6.4,22.22 -44.8,30.62 -64.36,34.38 c -42.01,4.55 -86.06,3.96 -123.39,-18.34 c -12.98,-8.28 -12.6,-21.26 -16.34,-34.58 c -4.76,-16.43 -12.62,-34.16 -32.26,-35 c -14.18,-0.65 -25.53,2.56 -37,-7.91 c -11.38,-9.68 -17.41,-21.97 -18.08,-36.89 Z M 117.18,286 c 0.2,47.56 42.02,54.92 80.27,45.77 c 25.75,-6.69 41.43,-36.14 38.49,-61.27 c -5.93,-28.64 -42.44,-33.68 -66.57,-35.28 c -35.69,-3.12 -51.74,16.65 -52.19,50.78 Z M 275.49,277 c 0.11,6.37 1.28,12.53 3.52,18.5 c 10.87,37.06 48.77,44.16 82.37,37.36 c 31.84,-7.86 38.11,-40.26 30.36,-68.27 c -10.54,-37.66 -51.36,-31.51 -81.21,-24.44 c -18.73,5.29 -34.79,15.33 -35.04,36.85 Z M 220.02,399 c -0.46,20.09 14.85,21.33 28.9,12.24 c 2.31,-1.58 4.55,-3.24 6.71,-4.99 c 0.5,-0.08 0.96,0.03 1.37,0.33 c 8.11,7.87 28.19,17.35 33.58,1.72 c 6.49,-18.87 -13.46,-45.93 -22.32,-61.95 c -1.43,-2.36 -3.65,-5.15 -6.78,-4.72 c -2.02,0.49 -3.96,1.16 -5.82,2.01 c -3.91,-2.24 -7.44,-3.46 -10.63,0.84 c -8.27,13.06 -24.68,39.43 -25.01,54.52 Z"/></g>
</svg>
