<?xml version="1.0" encoding="UTF-8"?>
<!DOCTYPE svg PUBLIC "-//W3C//DTD SVG 1.1//EN" "http://www.w3.org/Graphics/SVG/1.1/DTD/svg11.dtd">
<svg xmlns="http://www.w3.org/2000/svg" version="1.1" width="512px" height="512px" style="shape-rendering:geometricPrecision; text-rendering:geometricPrecision; image-rendering:optimizeQuality; fill-rule:evenodd; clip-rule:evenodd" xmlns:xlink="http://www.w3.org/1999/xlink">
<g><path fill="#000000" stroke="#000000" stroke-width="0.5" d="M 249.26,128.75 c -0.14,-0.6 0,-1.11 0.43,-1.53 c 2.52,-0.18 4.98,-0.68 7.38,-1.49 c 31.41,-9.19 54.23,-28.52 68.47,-57.98 c 4.29,-9.29 8.44,-21.05 9.65,-31.15 c 0.54,-0.72 1.07,-0.71 1.61,0.01 c 2.34,23.74 17.57,49.2 34.7,65.34 c 11.53,10.18 35.3,24.71 50.83,25.25 c 0.59,0.51 0.59,1.03 -0.01,1.55 c -2.52,0.19 -4.99,0.7 -7.38,1.55 c -35.31,10.61 -59.5,33.15 -72.59,67.63 c -2.28,6.66 -4.85,14.49 -5.56,21.47 c -0.54,0.72 -1.07,0.73 -1.6,0 c -2.53,-23.95 -17.38,-49.07 -34.71,-65.39 c -11.48,-11.17 -35.71,-23.68 -51.22,-25.26 Z M 33.28,279.25 c 2.67,-0.14 5.28,-0.62 7.82,-1.44 c 83.71,-21.7 136.67,-90.75 149.97,-174.28 c 0.61,-0.87 1.21,-0.87 1.83,0 c 13.81,85.53 67.99,154.46 153.99,175.29 c 0.87,0.14 5.53,0.06 3.43,1.96 c -3.92,0.11 -7.57,1.75 -11.38,2.53 c -81.24,22.58 -132.66,90.86 -145.91,172.27 c -0.13,1.59 -0.19,3.18 -0.18,4.77 c -0.58,0.56 -1.15,0.57 -1.73,0.01 c 0.03,-1.59 -0.02,-3.19 -0.16,-4.78 c -14.12,-85.18 -68.11,-153.68 -153.85,-174.41 c -1.38,-0.45 -4.35,0.52 -3.83,-1.92 Z M 305.27,383.91 c -0.02,-0.32 0.12,-0.55 0.42,-0.68 c 13.96,-1.9 33.09,-11.01 44.32,-19.87 c 21.45,-17.06 37.68,-43.36 41.19,-70.78 c 0.55,-0.77 1.08,-0.76 1.6,0.01 c 0.71,7.09 3.26,14.72 5.55,21.48 c 13.2,34.74 37.62,57.34 73.27,67.81 c 2.16,0.8 4.39,1.24 6.69,1.32 c 0.53,0.51 0.53,1.03 -0.01,1.55 c -16.56,1.26 -39.09,14.75 -51.3,25.75 c -16.69,15.92 -32.11,41.61 -34.19,64.91 c -0.52,0.78 -1.06,0.78 -1.6,0.01 c -1.28,-10.24 -5.33,-21.77 -9.66,-31.18 c -14.25,-29.44 -37.07,-48.78 -68.47,-57.99 c -2.41,-0.77 -4.87,-1.29 -7.39,-1.54 c -0.34,-0.16 -0.48,-0.42 -0.42,-0.8 Z"/></g>
</svg>
