<?xml version="1.0" encoding="UTF-8"?>
<!DOCTYPE svg PUBLIC "-//W3C//DTD SVG 1.1//EN" "http://www.w3.org/Graphics/SVG/1.1/DTD/svg11.dtd">
<svg xmlns="http://www.w3.org/2000/svg" version="1.1" width="512px" height="512px" style="shape-rendering:geometricPrecision; text-rendering:geometricPrecision; image-rendering:optimizeQuality; fill-rule:evenodd; clip-rule:evenodd" xmlns:xlink="http://www.w3.org/1999/xlink">
<g><path fill="#000000" stroke="#000000" stroke-width="0.5" d="M 50.46,286.12 c 1.03,-63.85 28.11,-117.74 78.55,-156.75 c 29.01,-21.69 61.5,-34.49 97.49,-38.4 c 0.57,0.02 1.04,-0.19 1.4,-0.61 c 0.36,-7.6 0.39,-15.19 0.1,-22.8 c -0.37,-0.47 -0.86,-0.69 -1.47,-0.65 c -11.66,-0.57 -25.05,3.11 -32.7,-8.31 c -8.31,-13.16 0.08,-29.13 15.67,-29.62 c 25.33,-0.03 50.67,-0.02 76,0 c 21.87,0.12 26.5,33.91 1,37.89 c -6.62,-0.02 -13.23,0.08 -19.83,0.29 c -0.42,0.35 -0.6,0.8 -0.55,1.35 c -0.05,7.25 0.02,14.49 0.21,21.72 c 0.28,0.42 0.68,0.64 1.2,0.66 c 33.53,3.54 64.18,14.9 91.94,34.07 c 4.1,2.92 8.15,5.9 12.15,8.94 c 0.81,0.13 1.5,-0.12 2.05,-0.74 c 4.64,-4.69 9.3,-9.36 13.99,-14 c 0.85,-1.13 0.75,-2.18 -0.3,-3.15 c -7.35,-8.2 -18.82,-14.65 -17.06,-27.35 c 2.87,-16 20.81,-22.19 32.52,-10.74 c 17.6,17.62 35.21,35.24 52.83,52.84 c 17.07,17.22 -6.28,43.28 -25.17,28.27 c -4.54,-4.43 -9.05,-8.89 -13.52,-13.38 c -0.39,-0.33 -0.84,-0.47 -1.35,-0.42 c -5.16,4.78 -10.2,9.71 -15.14,14.77 c -0.92,0.72 -1.08,1.58 -0.49,2.58 c 100.92,126.33 17.89,310.4 -142.48,320.27 c -112.93,5.19 -206.62,-83.56 -207.04,-196.73 Z M 105.06,286 c 0.37,36.99 12.99,69.18 37.87,96.57 c 61.31,65.16 163.66,59.98 217.89,-11.18 c 58.4,-79.24 22.57,-189.5 -70.47,-220.17 c -91.27,-29.02 -184.78,39.13 -185.29,134.78 Z M 187.98,320 c 0.15,-4.78 1.82,-8.94 5.03,-12.48 c 11.73,-9.95 23.38,-19.97 34.94,-30.07 c 0.24,-24.98 0.33,-49.96 0.26,-74.95 c 0.87,-23.29 34.08,-25.82 37.83,-2 c 0.1,28.66 0.13,57.33 0.08,86 c -0.11,6.07 -2.52,11.04 -7.22,14.91 c -12.99,10.95 -25.98,21.9 -38.96,32.85 c -12.9,11.11 -31.78,2.82 -31.96,-14.26 Z"/></g>
</svg>
