<?xml version="1.0" encoding="UTF-8"?>
<!DOCTYPE svg PUBLIC "-//W3C//DTD SVG 1.1//EN" "http://www.w3.org/Graphics/SVG/1.1/DTD/svg11.dtd">
<svg xmlns="http://www.w3.org/2000/svg" version="1.1" width="512px" height="512px" style="shape-rendering:geometricPrecision; text-rendering:geometricPrecision; image-rendering:optimizeQuality; fill-rule:evenodd; clip-rule:evenodd" xmlns:xlink="http://www.w3.org/1999/xlink">
<g><path fill="#000000" stroke="#000000" stroke-width="0.5" d="M 72.83,219 c -1.01,-25.16 18.53,-44.87 43.67,-44.33 c 42.65,-0.01 85.3,0 127.95,0.02 c 1.95,0.27 1.69,-1.93 1.72,-3.19 c 0.1,-6.95 -0.01,-13.88 -0.33,-20.81 c -3.69,-1.14 -7.3,-2.54 -10.84,-4.18 c -41.5,-22.02 -29.07,-83.13 18.5,-87.19 c 50.96,-1.26 67.52,65.58 21.48,88.14 c -2.93,1.14 -5.87,2.22 -8.82,3.23 c -0.32,6.93 -0.43,13.86 -0.33,20.81 c 0.03,1.26 -0.23,3.46 1.72,3.19 c 42.32,-0.02 84.63,-0.03 126.95,-0.03 c 24.48,-0.97 44.17,17.29 44.56,41.84 c 0.02,64.67 0.02,129.33 0,194 c -0.11,23.5 -18.18,41.5 -41.56,42.28 c -94,0.04 -188,0.05 -282,0.03 c -22.16,-0.35 -39.5,-15.25 -42.48,-37.31 c -0.19,-65.5 -0.25,-131 -0.19,-196.5 Z M 12.87,269 c -1.06,-23.19 15.88,-42.08 39.04,-43.54 c 1.36,-0.29 1.26,2.29 1.26,3.03 c -0.02,45.01 -0.02,90.02 0,135.03 c 0.56,3.44 -2.56,2.42 -4.67,2.23 c -19.58,-3.18 -33.38,-17.49 -35.51,-37.25 c -0.11,-19.83 -0.15,-39.67 -0.12,-59.5 Z M 458.72,229 c 0.06,-1.1 -0.29,-2.92 0.93,-3.5 c 22.66,1.16 39.8,19.27 39.47,42 c 0.03,20 0.01,40 -0.08,60 c -1.5,20.99 -17.55,37.06 -38.56,38.52 c -1.49,-0.14 -2.08,-0.97 -1.78,-2.5 c 0.03,-44.84 0.04,-89.68 0.02,-134.52 Z M 155.73,267 c 2.29,49.91 78.25,36.65 62.7,-11.72 c -14.37,-34.23 -62.91,-23.95 -62.7,11.72 Z M 291.56,267 c 2.62,50.1 78.44,36.39 62.85,-11.72 c -14.44,-34.03 -62.55,-24.31 -62.85,11.72 Z M 190.6,378 c 0.58,5.7 3.72,8.85 9.41,9.47 c 36.5,0.09 72.99,0.12 109.49,0.1 c 14.73,0.63 15.6,-17.72 3,-19.5 c -37,-0.07 -74,-0.09 -111,-0.07 c -6.17,-0.23 -10.83,3.69 -10.9,10 Z"/></g>
</svg>
