<svg xmlns="http://www.w3.org/2000/svg" version="1.1" width="512px" height="512px" style="shape-rendering:geometricPrecision; text-rendering:geometricPrecision; image-rendering:optimizeQuality; fill-rule:evenodd; clip-rule:evenodd" xmlns:xlink="http://www.w3.org/1999/xlink">
<g><path fill="#000000" stroke="#000000" stroke-width="0.5" d="M 12.9,256 c -0.5,-7.85 5.1,-14.3 8.98,-20.58 c 49.73,-75.78 123.74,-142.01 217.62,-150.26 c 112.16,-7.77 200.03,67.42 256.75,156.9 c 3.88,5.92 3.77,21.23 0.39,27.23 c -52.42,83.93 -136.13,157.96 -240.14,158.15 c -100.87,-0.36 -182,-70.48 -234.62,-150.86 c -3.88,-6.29 -9.47,-12.72 -8.98,-20.58 Z M 133.74,256 c 0.57,109.97 130.11,162.15 208.5,86.74 c 84.24,-87.05 8.98,-228.67 -110.72,-206.52 c -57.97,11.76 -97.71,60.65 -97.78,119.78 Z M 182.45,256 c -0.17,-50.97 48.21,-84.98 96.3,-69.58 c 2.72,0.92 5.31,2.08 7.79,3.48 c 0.15,0.4 0.12,0.79 -0.11,1.17 c -20.48,23.29 10.78,54.57 34.24,34.19 c 0.49,-0.21 0.94,-0.16 1.37,0.15 c 4.74,9.81 7.04,20.18 6.91,31.09 c -2.33,97.17 -145.39,95.75 -146.5,-0.5 Z"/></g>
</svg>
