<?xml version="1.0" encoding="UTF-8"?>
<!DOCTYPE svg PUBLIC "-//W3C//DTD SVG 1.1//EN" "http://www.w3.org/Graphics/SVG/1.1/DTD/svg11.dtd">
<svg xmlns="http://www.w3.org/2000/svg" version="1.1" width="512px" height="512px" style="shape-rendering:geometricPrecision; text-rendering:geometricPrecision; image-rendering:optimizeQuality; fill-rule:evenodd; clip-rule:evenodd" xmlns:xlink="http://www.w3.org/1999/xlink">
<g><path fill="#000000" stroke="#000000" stroke-width="0.5" d="M 200.02,0 c 37.32,0 74.64,0 111.96,0 c -0.06,0.47 0.14,0.81 0.59,1.02 c 2.11,0.48 3.59,1.26 5.1,2.81 c 8.14,2.32 10.6,17.24 11.56,24.34 c 0.32,7.38 2.6,16.17 2.96,23.35 c 1.89,8.07 2.25,19.73 4.61,27.16 c 5.84,3.3 11.82,6.31 17.94,9.03 c 3.77,2.83 8.15,5.52 11.81,8.27 c 1.1,0.26 2.11,0.71 3.02,1.38 c 1.26,-0.51 2.57,-0.86 3.94,-1.07 c 0.99,-0.32 1.87,-0.82 2.65,-1.51 c 3.08,-0.8 22.04,-8.44 25.03,-9.97 c 4.89,-1.59 15.56,-5.92 20.64,-8.26 c 24.33,-8.28 29.94,5.71 40.39,23.71 c 13.55,24.9 29.29,49.29 42.18,74.55 c 3.37,24.43 -9.15,24.14 -23.33,37.79 c -2.01,0.7 -7.17,5.36 -9,6.99 c -1.04,0.46 -16.67,12.51 -17.44,13.61 c -1.53,0.71 -2.89,1.66 -4.08,2.86 c -1.32,0.8 -0.49,3.9 -0.55,5.2 c -0.18,3.43 -0.05,6.85 0.4,10.26 c 0.01,6.42 -0.08,12.83 -0.27,19.23 c -1.59,8.42 3.79,5.26 6.51,10.13 c 4.06,2.02 6.94,6.01 10.97,7.99 c 9.8,8.33 20.2,15.96 30.22,23.82 c 13.43,12.87 6.22,29.05 -3.01,41.7 c -1.44,4.02 -5.04,8.16 -6.55,12.3 c -11.98,19.73 -23.25,40.25 -34.98,60.08 c -9.72,12.42 -17.11,13.26 -32.1,8.43 c -6.31,-2.85 -13.5,-5.85 -20,-7.95 c -2.83,-1.6 -21.81,-9.14 -25.01,-10.08 c -0.8,-0.65 -1.69,-1.14 -2.67,-1.46 c -2.65,-0.31 -4.75,-2.64 -6.8,0.55 c -9.59,6.88 -19.36,11.65 -29.93,17.02 c -1.77,5.79 -2.9,16.37 -3.51,22.58 c -4.24,12.59 -1.43,47.01 -15.59,52.33 c -1.06,0.9 -2.18,1.71 -3.37,2.44 c -0.79,0.33 -2.36,0.17 -2.34,1.37 c -37.32,0 -74.63,0 -111.95,0 c 0.28,-1.3 -1.57,-1.05 -2.31,-1.36 c -6.18,-4.08 -10.64,-7.34 -12.93,-14.82 c -3.02,-20.28 -5.62,-40.78 -8.79,-61.31 c -0.05,-0.53 -0.27,-0.98 -0.65,-1.34 c -6.09,-2.85 -12.11,-5.84 -18.06,-8.97 c -2.85,-2.21 -5.85,-4.18 -9.03,-5.89 c -1.35,-1 -2.66,-2.05 -3.93,-3.15 c -2.07,-1.68 -3.67,0.58 -5.83,0.56 c -3.63,2.09 -14.46,5.46 -17.69,7.52 c -6.61,1.92 -15.44,6.37 -22.29,8.54 c -12.42,5.7 -24.89,10.64 -36.36,-0.47 c -15.35,-23.19 -27.74,-48.16 -42.43,-71.62 c -5.49,-11.04 -17.61,-25.8 -11.35,-38.77 c 3.85,-9.67 14.11,-13.27 20.84,-20.22 c 3.52,-2.01 15.79,-11.85 19.02,-14.94 c 4.13,-1.74 7.07,-6.33 11.11,-7.92 c 0.78,-1.44 2.87,-1.81 2.89,-3.29 c 0,-1.6 -0.12,-3.19 -0.34,-4.77 c -0.3,-9.2 -0.3,-18.4 0.02,-27.61 c 0.82,-5.06 0.38,-4.59 -2.59,-7.98 c -1.97,-1.32 -16.61,-12.15 -17.97,-14.05 c -2.53,-1.45 -21.35,-16.03 -23.01,-17.99 c -8.46,-3.75 -12.26,-14.59 -11.7,-23.33 c 0.36,-1.62 1.15,-2.71 1.05,-4.62 c 10.64,-20.33 23.27,-39.75 34,-59.98 c 11.43,-14.63 17.81,-46.56 43.15,-39.26 c 3.12,0.53 8.31,3.34 11,3.77 c 3.09,1.64 26.48,11.05 30.01,12.06 c 2.17,1.61 10.11,3.82 12.64,5.49 c 1.42,0.14 2.75,0.54 3.99,1.22 c 0.67,-0.04 1.29,-0.26 1.85,-0.64 c 1.22,-1.15 2.54,-2.19 3.93,-3.13 c 8.53,-5.68 17.61,-10.55 27.08,-14.9 c 0.38,-0.36 0.6,-0.81 0.65,-1.34 c 3.16,-20.39 5.99,-40.91 8.78,-61.31 c 1.14,-4.52 4.06,-7.55 6.93,-10.98 c 2.07,-1.25 4.09,-2.15 5.91,-4.07 c 0.75,-0.31 2.59,0.19 2.41,-1.13 Z M 170.83,256 c 0.05,2.86 0.13,5.7 0.24,8.53 c 0.22,1.92 0.62,3.8 1.2,5.65 c -0.01,0.79 -0.01,1.57 0.01,2.36 c 1.31,5.3 2.89,10.52 4.75,15.65 c 2.17,3.99 4.22,8.03 6.17,12.12 c 1.02,1.32 2.06,2.64 3.11,3.96 c 0.32,0.66 0.62,1.34 0.89,2.03 c 0.75,0.59 1.45,1.23 2.1,1.92 c 0.34,0.93 0.79,1.81 1.35,2.62 c 2.18,1.51 3.94,3.4 5.28,5.67 c 2.85,1.16 3.33,3.7 5.81,5.24 c 1.69,0.52 3.01,1.54 3.96,3.04 c 0.71,0.29 1.4,0.59 2.09,0.91 c 1.32,1.01 2.62,2.05 3.9,3.11 c 4.06,2 8.1,4.06 12.11,6.17 c 2.51,0.81 5,1.68 7.48,2.6 c 2.73,0.7 5.46,1.43 8.18,2.18 c 0.79,-0.02 1.59,-0.05 2.39,-0.09 c 1.49,0.59 3.03,0.98 4.63,1.18 c 3.32,0.19 6.66,0.3 10.02,0.35 c 3.03,-0.06 6.03,-0.18 9.02,-0.35 c 1.59,-0.2 3.13,-0.59 4.63,-1.14 c 0.8,0.02 1.6,0.04 2.4,0.05 c 2.72,-0.74 5.44,-1.46 8.17,-2.16 c 0.55,-0.15 1.03,-0.42 1.43,-0.82 c 1.97,-0.73 3.99,-1.32 6.06,-1.79 c 4.02,-2.11 8.06,-4.16 12.12,-6.16 c 1.27,-1.07 2.57,-2.11 3.91,-3.11 c 1.7,-0.49 3.05,-1.48 4.03,-2.97 c 1.93,-0.61 3.39,-1.8 4.38,-3.57 c 1.63,-0.99 3.1,-2.2 4.38,-3.62 c 1.06,-1.93 2.5,-3.49 4.34,-4.7 c 0.56,-0.81 1.03,-1.68 1.4,-2.6 c 0.65,-0.68 1.34,-1.33 2.05,-1.94 c 0.28,-0.71 0.59,-1.41 0.91,-2.1 c 0.99,-1.34 2.03,-2.64 3.1,-3.89 c 1.98,-4.07 4.03,-8.11 6.16,-12.13 c 0.8,-2.51 1.67,-5 2.6,-7.47 c 0.62,-1.81 1,-3.67 1.13,-5.59 c 1.22,-1.85 1.06,-2.92 0.96,-4.97 c 0.6,-1.49 0.99,-3.04 1.17,-4.65 c 0.19,-3.33 0.3,-6.67 0.35,-10.02 c -0.06,-3.03 -0.18,-6.04 -0.34,-9.02 c -0.2,-1.58 -0.57,-3.11 -1.13,-4.6 c 0.03,-0.81 0.05,-1.62 0.06,-2.43 c -1.33,-5.3 -2.93,-10.52 -4.8,-15.65 c -2.2,-3.97 -4.25,-8.01 -6.17,-12.13 c -1.05,-1.28 -2.09,-2.58 -3.12,-3.9 c -0.31,-0.69 -0.6,-1.39 -0.88,-2.09 c -0.77,-0.57 -1.48,-1.2 -2.13,-1.9 c -0.53,-1.98 -1.71,-3.45 -3.52,-4.41 c -0.97,-1.65 -2.18,-3.12 -3.61,-4.4 c -0.74,-0.6 -1.53,-1.13 -2.36,-1.6 c -1.81,-2.02 -2.21,-3.08 -4.93,-4.11 c -0.76,-0.59 -1.41,-1.28 -1.95,-2.08 c -0.69,-0.29 -1.37,-0.6 -2.03,-0.94 c -1.36,-0.99 -2.68,-2.01 -3.96,-3.07 c -4.09,-1.94 -8.13,-4 -12.12,-6.17 c -5.14,-1.85 -10.36,-3.44 -15.66,-4.76 c -0.81,0.01 -1.63,0.02 -2.44,0.04 c -1.48,-0.55 -3.01,-0.93 -4.59,-1.13 c -3.32,-0.19 -6.66,-0.3 -10.02,-0.35 c -3.03,0.06 -6.04,0.18 -9.02,0.35 c -1.6,0.21 -3.15,0.6 -4.66,1.14 c -1.78,-0.31 -3.44,0.01 -4.98,0.98 c -1.91,0.17 -3.77,0.55 -5.57,1.15 c -2.47,0.93 -4.96,1.8 -7.47,2.6 c -4,2.14 -8.04,4.2 -12.12,6.17 c -1.29,1.04 -2.6,2.08 -3.92,3.11 c -0.67,0.33 -1.35,0.64 -2.06,0.9 c -0.58,0.75 -1.23,1.43 -1.95,2.05 c -2.44,1.13 -4.42,2.8 -5.94,5.03 c -0.81,0.5 -1.59,1.05 -2.33,1.65 c -1.24,2.07 -2.85,3.81 -4.82,5.22 c -0.57,0.83 -1.03,1.71 -1.4,2.65 c -1.49,0.96 -2.49,2.28 -3,3.97 c -1.01,1.32 -2.03,2.63 -3.06,3.92 c -2,4.06 -4.06,8.1 -6.16,12.12 c -0.81,2.51 -1.68,5.01 -2.6,7.49 c -0.71,2.72 -1.43,5.44 -2.16,8.15 c -0.04,1.71 0.3,1.81 -0.64,3.38 c -0.07,1.57 -0.25,3.13 -0.55,4.67 c -0.1,2.84 -0.19,5.67 -0.26,8.5 Z"/></g>
<g><path fill="#000000" fill-opacity="0.424" d="M 450,241.26 c 0.77,-0.06 1.11,0.32 1.02,1.13 c -0.04,9.05 -0.03,18.1 0.03,27.16 c 0.16,0.84 -0.15,1.24 -0.92,1.2 c 0.19,-6.4 0.28,-12.81 0.27,-19.23 c -0.45,-3.41 -0.58,-6.83 -0.4,-10.26 Z"/></g>
<g><path fill="#000000" fill-opacity="0.396" d="M 61.91,242.17 c -0.32,9.21 -0.32,18.41 -0.02,27.61 c -0.78,0.01 -1.09,-0.4 -0.94,-1.23 c -0.18,-8.67 -0.14,-17.34 0.15,-26.01 c 0.15,-0.41 0.42,-0.53 0.81,-0.37 Z"/></g>
</svg>
