<?xml version="1.0" encoding="UTF-8"?>
<!DOCTYPE svg PUBLIC "-//W3C//DTD SVG 1.1//EN" "http://www.w3.org/Graphics/SVG/1.1/DTD/svg11.dtd">
<svg xmlns="http://www.w3.org/2000/svg" version="1.1" width="512px" height="512px" style="shape-rendering:geometricPrecision; text-rendering:geometricPrecision; image-rendering:optimizeQuality; fill-rule:evenodd; clip-rule:evenodd" xmlns:xlink="http://www.w3.org/1999/xlink">
<g><path fill="#000000" stroke="#000000" stroke-width="0.5" d="M 437.02,0 c 1.65,0 3.3,0 4.95,0 c 1.76,2.56 2.37,5.39 1.83,8.48 c -6.73,53.71 -16.97,106.75 -30.73,159.12 c -1.28,3.95 -0.44,7.36 2.53,10.22 c 29.12,26.57 60.25,46.63 94.76,65.28 c 9.92,15.51 -30.88,45.06 -42.5,51.04 c -101.55,54.62 -233.23,-34.09 -326.87,43.34 c -3.53,3.13 -7.05,6.25 -10.55,9.36 c -0.72,-0.21 -1.12,-0.7 -1.21,-1.46 c -22.81,-81.83 -45.64,-163.64 -68.49,-245.45 c -0.8,-3.05 -1.85,-6.02 -3.14,-8.9 c -0.16,-0.6 -0.05,-1.14 0.33,-1.63 c 44.21,-46.96 104.78,-46.7 164.57,-41.25 c 44.83,4.11 91.77,11.5 136.29,1.59 c 30.75,-7.01 59.29,-24.45 78.23,-49.74 Z M 129.95,512 c -2.98,0 -5.95,0 -8.92,0 c -0.08,-1.03 -3.61,-0.97 -4.45,-2.03 c -4.21,-2.53 -6.96,-6.17 -8.24,-10.92 c -36.02,-128.78 -71.93,-257.58 -107.74,-386.41 c -0.13,-0.29 -0.33,-0.52 -0.6,-0.68 c 0,-2.97 0,-5.95 0,-8.92 c 0.38,-0.07 0.64,-0.29 0.79,-0.67 c 6.61,-20.17 35.4,-21.17 42.02,-0.8 c 36.09,128.97 72.14,257.95 108.15,386.95 c 2.47,14.93 -7.9,20.19 -20.36,22.82 c -0.31,0.14 -0.53,0.36 -0.65,0.66 Z"/></g>
</svg>
